#N canvas -883 416 842 672 16;
#X obj 90 34 inlet;
#X obj 193 561 outlet~;
#X obj 355 560 outlet~;
#X obj 162 201 osc~;
#X obj 326 202 phasor~;
#X obj 234 200 square~;
#X msg 441 246 1;
#X msg 491 246 0;
#X obj 476 213 bng 15 250 50 0 empty empty empty 17 7 0 10 -262144
-1 -1;
#X msg 547 248 1;
#X msg 597 248 0;
#X obj 582 215 bng 15 250 50 0 empty empty empty 17 7 0 10 -262144
-1 -1;
#X msg 653 245 1;
#X msg 703 245 0;
#X obj 688 212 bng 15 250 50 0 empty empty empty 17 7 0 10 -262144
-1 -1;
#X text 542 145 this is so dumb;
#X obj 206 140 mtof;
#X obj 128 345 dbtorms;
#X obj 497 176 select 0 1 2;
#X obj 285 278 *~ 0.6;
#X obj 92 75 route volume pan note oscillator;
#X obj 322 443 *~;
#X obj 302 350 *~ 0;
#X obj 395 352 *~ 0;
#X obj 469 352 *~ 0;
#X obj -6 494 max 0;
#X floatatom -7 532 5 0 0 0 - - -;
#X obj -6 457 min 1;
#X floatatom 36 320 5 0 0 0 - - -;
#X obj 66 490 max 0;
#X floatatom 66 534 5 0 0 0 - - -;
#X obj 67 457 min 1;
#X obj -4 412 + 1;
#X obj 71 376 + 1;
#X obj -2 370 * -1;
#X text -43 257 crude pan;
#X obj 225 515 *~;
#X obj 341 507 *~;
#X connect 0 0 20 0;
#X connect 3 0 22 0;
#X connect 4 0 24 0;
#X connect 5 0 19 0;
#X connect 6 0 22 1;
#X connect 7 0 23 1;
#X connect 7 0 24 1;
#X connect 8 0 6 0;
#X connect 8 0 7 0;
#X connect 9 0 23 1;
#X connect 10 0 22 1;
#X connect 10 0 24 1;
#X connect 11 0 9 0;
#X connect 11 0 10 0;
#X connect 12 0 24 1;
#X connect 13 0 22 1;
#X connect 13 0 23 1;
#X connect 14 0 12 0;
#X connect 14 0 13 0;
#X connect 16 0 3 0;
#X connect 16 0 5 0;
#X connect 16 0 4 0;
#X connect 17 0 21 1;
#X connect 18 0 8 0;
#X connect 18 1 11 0;
#X connect 18 2 14 0;
#X connect 19 0 23 0;
#X connect 20 0 17 0;
#X connect 20 1 28 0;
#X connect 20 2 16 0;
#X connect 20 3 18 0;
#X connect 21 0 36 0;
#X connect 21 0 37 0;
#X connect 22 0 21 0;
#X connect 23 0 21 0;
#X connect 24 0 21 0;
#X connect 25 0 26 0;
#X connect 25 0 36 1;
#X connect 27 0 25 0;
#X connect 28 0 33 0;
#X connect 28 0 34 0;
#X connect 29 0 30 0;
#X connect 29 0 37 1;
#X connect 31 0 29 0;
#X connect 32 0 27 0;
#X connect 33 0 31 0;
#X connect 34 0 32 0;
#X connect 36 0 1 0;
#X connect 37 0 2 0;
