#N canvas 453 207 820 830 16;
#X obj 376 596 dac~;
#X obj 72 411 dbtorms;
#X obj 468 536 *~;
#X obj 324 533 *~;
#X obj 294 77 route 1 2 3 4 5 6 7 8 9 10;
#X obj 320 29 r instrument;
#X obj 170 168 mandelbrotInstrument;
#X obj 198 200 mandelbrotInstrument;
#X obj 226 233 mandelbrotInstrument;
#X obj 257 266 mandelbrotInstrument;
#X obj 285 299 mandelbrotInstrument;
#X obj 476 165 mandelbrotInstrument;
#X obj 492 195 mandelbrotInstrument;
#X obj 516 227 mandelbrotInstrument;
#X obj 537 260 mandelbrotInstrument;
#X obj 555 295 mandelbrotInstrument;
#X floatatom 100 578 5 0 0 0 - - -;
#X msg 48 -63 2 volume 100 \, 2 pan -1 \, 2 note 60 \, 2 oscillator
0;
#X obj 74 373 r volume;
#X obj 97 623 s volume;
#X msg 284 -31 3 volume 95 \, 3 pan 0 \, 3 note 65 \, 3 oscillator
1;
#X msg 217 -108 4 volume 95 \, 4 pan 1 \, 4 note 67 \, 4 oscillator
0;
#X obj 45 306 loadbang;
#X msg 45 339 95;
#X connect 1 0 2 1;
#X connect 1 0 3 1;
#X connect 2 0 0 1;
#X connect 3 0 0 0;
#X connect 4 0 6 0;
#X connect 4 1 7 0;
#X connect 4 2 8 0;
#X connect 4 3 9 0;
#X connect 4 4 10 0;
#X connect 4 5 11 0;
#X connect 4 6 12 0;
#X connect 4 7 13 0;
#X connect 4 8 14 0;
#X connect 4 9 15 0;
#X connect 5 0 4 0;
#X connect 6 0 3 0;
#X connect 6 1 2 0;
#X connect 7 0 3 0;
#X connect 7 1 2 0;
#X connect 8 0 3 0;
#X connect 8 1 2 0;
#X connect 9 0 3 0;
#X connect 9 1 2 0;
#X connect 10 0 3 0;
#X connect 10 1 2 0;
#X connect 11 0 3 0;
#X connect 11 1 2 0;
#X connect 12 0 3 0;
#X connect 12 1 2 0;
#X connect 13 0 3 0;
#X connect 13 1 2 0;
#X connect 14 0 3 0;
#X connect 14 1 2 0;
#X connect 15 0 3 0;
#X connect 15 1 2 0;
#X connect 16 0 19 0;
#X connect 17 0 4 0;
#X connect 17 0 4 0;
#X connect 18 0 1 0;
#X connect 20 0 4 0;
#X connect 21 0 4 0;
#X connect 22 0 23 0;
#X connect 23 0 1 0;
